<?xml version="1.0" encoding="UTF-8"?>
<svg width="1680px" height="26px" viewBox="0 0 1680 26" version="1.1" xmlns="http://www.w3.org/2000/svg" xmlns:xlink="http://www.w3.org/1999/xlink">
    <!-- Generator: Sketch 62 (91390) - https://sketch.com -->
    <title>pattern_a</title>
    <desc>Created with Sketch.</desc>
    <g id="Page-1" stroke="none" stroke-width="1" fill="none" fill-rule="evenodd">
        <path d="M0,0 L0,10.7001734 C2.18806981,11.5446797 4.37613962,12.5840721 7.43943735,13.1037682 C7.52696015,12.51911 7.70200573,11.9994138 7.00182339,11.8694898 C7.70200573,10.8300974 8.31466528,12.7789581 8.66475645,13.1687303 C9.27741599,12.7789581 10.940349,13.1687303 10.5902579,12.1293379 C11.2904402,12.6490341 11.5530086,13.3636163 13.47851,13.1037682 C12.6908049,11.2848316 14.7038291,13.2986543 15.4915343,11.2198696 C16.5418078,12.454148 18.4673092,11.7395657 19.6051055,12.324224 C19.8676739,11.4797176 19.2550143,11.0249835 17.9421724,11.0249835 C18.9924459,9.79070503 19.3425371,11.9344518 20.9179474,11.6096417 C20.5678562,11.1549075 19.6051055,11.0899455 19.8676739,10.3753632 C23.3685856,12.1942999 31.2456369,13.6884265 34.6590258,13.3636163 C34.4839802,12.9088822 33.6962751,12.2592619 33.5212295,12.9088822 C33.5212295,10.9600215 39.7353477,14.9876669 41.8358948,14.2730847 C41.0481896,10.0505531 52.9512894,14.7927809 56.3646783,14.8577429 C57.2399062,14.8577429 58.1151341,15.7672112 58.1151341,15.7672112 C58.2026569,15.7672112 64.7668664,13.4935404 66.6923678,15.5723251 C66.3422766,14.2730847 74.8319875,15.7022492 73.8692368,16.4817935 C75.7072154,16.8066036 75.3571243,15.3774391 77.5451941,15.9620973 C77.1075801,15.3124771 75.7072154,15.247515 74.6569419,14.9876669 C80.2584006,13.7533885 84.1094035,15.8971353 87.697838,17.4562238 C88.4855431,17.3262998 89.0106799,17.0014897 89.0982027,16.3518694 C90.4110445,16.3518694 89.1857254,17.781034 89.4482938,18.3656922 C91.2862725,17.3262998 92.6866371,17.97592 93.9119562,17.0664517 C97.9380047,19.5999706 104.414691,18.1058441 106.427716,19.0802744 C105.990102,18.4956162 108.703308,18.3656922 107.82808,17.97592 C110.716332,17.1963757 110.191196,19.1452365 113.77963,19.1452365 C115.092472,18.9503504 112.816879,17.781034 112.20422,17.4562238 C112.116697,16.4817935 115.530086,19.4050846 118.068247,19.4700466 C119.556134,19.2101985 116.842928,18.2357681 117.805679,17.0664517 C120.956499,18.5605782 118.855952,18.6905023 121.044022,20.0547048 C121.831727,19.9897428 121.656681,19.0802744 121.831727,18.4956162 C124.457411,20.1846288 127.170617,21.1590592 129.621256,19.4050846 C129.971347,21.7437174 132.334462,18.8853884 131.809325,21.1590592 C133.734827,19.9897428 134.872623,21.2240212 136.185465,19.8598187 C137.935921,20.2495909 135.485283,20.639363 136.010419,21.4189073 C138.54858,20.0547048 142.399583,21.1590592 143.099766,18.3007302 C142.749674,19.8598187 143.974993,21.8086794 146.338109,21.6787554 C147.913519,21.6787554 145.637927,20.9641731 146.513154,20.1196668 C147.825996,20.509439 147.650951,21.7437174 149.313884,21.8736415 C152.377182,20.704325 155.615525,19.6649327 158.5913,20.509439 C160.16671,20.3145529 157.628549,19.4050846 158.241209,18.4956162 C158.503777,19.2751605 161.129461,20.1846288 160.691847,18.2357681 C162.092212,18.2357681 161.216984,19.4050846 162.35478,19.5350086 C163.405053,19.5350086 165.593123,17.1314137 166.030737,19.4050846 C167.168533,19.4050846 166.555874,18.1058441 167.431102,17.910958 C169.444126,18.2357681 166.205783,19.9897428 167.781193,19.9247807 C170.231831,20.1846288 168.218807,19.1452365 168.568898,18.3656922 C169.006512,19.9247807 173.732743,18.1708061 172.06981,19.7948567 C173.995311,19.4050846 175.483199,18.4306542 177.583746,19.4050846 C176.183381,18.4956162 177.058609,18.7554643 176.620995,17.3262998 C178.721542,17.910958 179.59677,16.6766796 181.959885,18.1058441 C183.097682,17.3912618 181.959885,17.5861479 182.134931,16.5467555 C184.848138,15.8971353 193.07528,19.0802744 193.600417,16.9365276 C196.401146,16.5467555 200.252149,18.5605782 202.702787,17.1314137 C204.628289,18.8853884 207.954155,17.1314137 211.017452,18.4956162 C211.192498,17.845996 210.142225,17.3912618 211.192498,17.3262998 C213.293045,17.5211859 211.280021,17.910958 212.242772,19.0153124 C216.706434,18.6905023 213.117999,19.5999706 217.581662,19.7948567 C217.581662,19.3401225 216.531388,19.4050846 215.831206,19.2751605 C220.820005,18.8204263 221.082574,19.6649327 224.233394,20.2495909 C225.546236,20.3795149 224.671008,18.8853884 225.108622,18.3007302 C226.421464,17.845996 233.335765,19.4050846 231.235218,17.910958 C232.635582,16.7416416 237.27429,20.4444769 237.974473,17.5861479 C239.199792,19.0802744 242.175567,18.1708061 240.775202,17.0014897 C240.425111,16.8066036 240.07502,16.6766796 239.987497,16.5467555 C240.337588,16.7416416 240.600156,16.8715656 240.775202,17.0014897 C242.700703,17.845996 247.777025,18.8204263 251.890597,18.1058441 C251.540505,17.6511099 250.577755,17.5861479 250.840323,16.8715656 C252.240688,16.0920213 254.253712,16.8715656 255.041417,17.5211859 C255.916645,16.2869074 253.115916,17.0664517 253.991144,15.8971353 C256.266736,15.9620973 259.417557,16.6766796 259.592602,15.052629 C261.255535,15.8971353 260.292785,16.8066036 262.393332,16.8066036 C263.881219,16.6766796 260.46783,15.8971353 262.568377,15.247515 C263.793696,17.910958 272.108362,16.1569834 275.959364,14.9876669 C273.333681,12.8439201 280.160458,13.2336923 283.486325,13.1037682 C283.311279,12.7139961 283.048711,12.389186 282.348528,12.2592619 C283.836416,12.454148 286.199531,12.1942999 287.074759,13.3636163 C289.175306,13.4285784 286.199531,11.5446797 287.862464,11.8045278 C289.262829,13.1687303 293.026309,11.8694898 292.326127,12.324224 C294.164105,12.5840721 293.814014,13.6234644 294.426674,13.0388062 C298.102631,15.247515 305.2795,11.5446797 306.504819,13.4285784 C307.46757,13.1687303 307.555092,12.1942999 307.992706,11.5446797 C310.530867,11.5446797 311.318573,12.454148 313.331597,12.7139961 C316.657463,10.2454392 322.871581,12.7139961 325.67231,11.1549075 C324.446991,10.2454392 322.784058,9.66078098 322.871581,9.01116074 C324.009377,7.97176836 325.059651,10.0505531 326.372493,10.0505531 C326.197447,9.53085693 325.67231,9.20604681 324.622037,9.14108479 C326.022402,8.6213886 328.122949,8.68635062 330.135973,8.75131264 C330.04845,9.79070503 332.849179,9.53085693 331.098724,10.3753632 C332.148997,10.2454392 336.787705,10.5702493 334.249544,9.79070503 C334.862204,8.94619871 337.050274,10.1804772 337.137796,10.7651354 C338.013024,10.5702493 338.363115,9.9855911 338.538161,9.27100883 C340.37614,10.3104012 342.389164,8.75131264 343.964574,9.66078098 C344.664756,9.85566705 346.152644,8.68635062 344.752279,8.49146455 C345.71503,7.64695824 346.677781,9.85566705 347.553009,10.2454392 C349.47851,10.3104012 349.390987,8.81627467 351.929148,9.33597086 C351.929148,8.94619871 351.228966,9.01116074 350.791352,8.88123669 C352.804376,9.07612276 355.43006,7.32214812 356.742902,9.66078098 C358.668403,9.20604681 356.130242,8.1016924 358.930972,6.997338 C356.830425,7.06230002 356.917947,7.32214812 355.342537,6.7374899 C360.856473,5.89298359 364.619953,9.66078098 368.29591,9.9855911 C369.258661,9.9855911 368.558479,9.20604681 367.595728,8.81627467 C371.09664,9.46589491 377.660849,11.6746037 376.960667,8.94619871 C381.424329,10.4403253 384.57515,8.75131264 390.089086,11.0249835 C389.826517,9.85566705 393.414952,11.0899455 394.990362,10.5702493 C392.539724,9.66078098 394.29018,9.53085693 395.25293,8.23161645 C395.165408,9.59581895 399.191456,8.42650252 401.292003,8.6213886 C406.280802,9.07612276 411.619693,10.8300974 415.645741,10.3753632 C416.520969,10.0505531 415.470695,9.725743 417.046106,9.27100883 C422.384996,11.7395657 426.235999,8.81627467 429.911956,8.55642657 C429.561865,8.55642657 430.874707,9.9855911 433.500391,9.20604681 C438.226622,7.77688229 446.891378,9.07612276 454.068247,10.1804772 C456.168794,10.3104012 458.882001,8.75131264 460.719979,10.2454392 C460.10732,8.94619871 463.520709,10.3753632 462.645481,9.59581895 C464.395936,9.33597086 468.071894,11.6096417 468.684553,9.59581895 C469.909872,12.0643759 473.235738,10.6352113 475.773899,11.2848316 C473.235738,10.7001734 477.524355,9.92062907 474.811149,9.66078098 C474.54858,9.66078098 474.373535,9.59581895 474.198489,9.59581895 C474.461058,9.59581895 474.636103,9.66078098 474.811149,9.66078098 C479.012243,10.0505531 485.313884,11.4797176 489.602501,12.6490341 C491.440479,11.6746037 493.97864,11.4147556 494.153686,10.1804772 C495.379005,10.3753632 494.066163,11.9344518 495.116437,12.2592619 C496.604324,12.8439201 497.829643,11.2198696 497.479552,12.8439201 C498.179734,12.324224 500.805418,11.6746037 497.654598,11.6746037 C499.580099,10.6352113 502.818442,12.389186 504.30633,11.7395657 C504.568898,11.2198696 504.218807,11.0249835 503.69367,10.9600215 C503.518625,10.9600215 503.343579,10.8950594 503.168533,10.8950594 C503.343579,10.9600215 503.518625,10.9600215 503.69367,10.9600215 C508.945038,11.8045278 512.358427,9.27100883 521.460797,10.5052873 C522.423548,10.6352113 520.848138,11.2198696 521.985934,11.3497936 C524.349049,11.9994138 523.386299,10.1155151 525.661891,10.8300974 C525.3118,9.66078098 524.786663,10.3104012 523.298776,10.2454392 C525.399323,7.90680633 530.563167,11.0249835 534.064079,11.3497936 C536.777286,10.7651354 535.989581,10.1804772 537.389945,8.81627467 C542.378744,8.75131264 548.417817,9.9855911 555.332118,11.2198696 C556.0323,11.3497936 557.432665,10.8950594 557.782756,11.0249835 C559.445689,11.4147556 561.458713,12.7139961 559.008075,11.0899455 C561.721282,12.1293379 566.797604,13.1687303 570.648606,15.052629 C572.749153,14.8577429 574.061995,14.0132366 576.337588,13.8833125 C575.724928,13.6234644 578.525658,11.5446797 578.438135,11.6096417 C578.875749,11.4147556 580.276114,11.7395657 580.276114,11.7395657 C580.626205,11.6096417 580.80125,11.4797176 580.976296,11.4147556 C581.063819,11.5446797 581.238864,11.6746037 581.501433,11.8045278 C582.464183,12.389186 587.540505,11.2848316 585.352436,10.5052873 C592.966918,11.9344518 597.693149,11.2848316 605.570201,13.8833125 C606.007815,13.3636163 603.382131,12.7789581 605.132587,12.6490341 C609.158635,16.1569834 615.810367,11.5446797 620.098984,14.4679707 C620.799166,14.4679707 620.711644,13.7533885 620.886689,13.2986543 C621.936963,14.9876669 623.512373,14.1431606 626.138057,14.8577429 C627.450899,14.7927809 625.437874,13.5585024 625.175306,13.2336923 C627.275853,13.1037682 628.588695,14.7927809 631.039333,15.247515 C635.32795,14.0132366 639.791612,14.7278188 645.04298,14.9876669 C645.305548,14.4030087 645.918208,14.3380467 647.056004,13.5585024 C650.031779,14.8577429 649.944256,13.2336923 651.344621,13.0388062 C659.221672,14.1431606 677.776504,16.4817935 686.003647,13.3636163 C686.791352,13.4935404 688.804376,14.7278188 688.979422,13.9482746 C689.85465,14.2081226 688.891899,14.2730847 688.891899,14.7278188 C697.206564,14.2730847 706.133889,18.6905023 712.785621,17.910958 C712.260485,17.3912618 709.022141,17.0014897 708.584527,17.2613378 C708.409482,16.8715656 708.146913,16.5467555 707.446731,16.4168315 C708.584527,15.6372872 710.685074,16.7416416 709.459755,14.9876669 C714.536077,17.0664517 718.124512,14.2081226 722.675697,16.2869074 C723.988539,16.5467555 726.176608,15.3124771 724.688721,14.8577429 C727.401928,14.4679707 730.727794,17.0014897 733.441,17.845996 C734.578797,17.5861479 734.403751,16.2869074 736.591821,16.8715656 C736.24173,16.4817935 735.541547,16.2219454 734.841365,15.9620973 C735.278979,15.7672112 740.880438,17.3912618 739.39255,18.2357681 C740.267778,17.7160719 742.893462,17.910958 743.593644,18.4956162 C744.643918,17.0664517 740.880438,18.2357681 742.018234,16.8066036 C742.630893,17.3262998 746.481896,18.1708061 745.694191,16.2869074 C748.319875,17.781034 755.409221,18.1058441 757.597291,18.6905023 C761.885908,19.9897428 765.649388,19.0153124 770.550664,17.1963757 C770.550664,16.8066036 769.850482,16.8715656 769.412868,16.7416416 C775.014327,15.9620973 775.714509,18.5605782 782.01615,18.3656922 C781.666059,17.781034 780.790831,17.5211859 779.740557,17.3912618 C778.777807,16.4168315 783.416515,17.845996 783.854129,18.4956162 C784.991925,17.7160719 786.042198,17.97592 785.342016,16.6117175 C786.567335,16.8066036 786.39229,17.781034 787.617609,17.97592 C788.492837,17.845996 787.442563,17.4562238 787.792654,16.8066036 C792.868976,17.0664517 805.647304,20.0547048 804.947122,15.9620973 C810.986194,16.4817935 814.399583,14.9876669 819.038291,14.9227049 C818.863246,15.3774391 818.425632,15.5723251 817.812972,15.5723251 C821.138838,15.9620973 824.02709,18.5605782 828.840844,19.1452365 C833.917166,19.7298947 841.88174,16.6117175 844.419901,20.9641731 C845.032561,20.704325 845.820266,20.639363 846.870539,20.7692871 C847.22063,21.5488313 848.620995,21.1590592 847.308153,22.0035655 C849.496223,22.2634136 853.084657,21.1590592 855.797864,22.1984516 C857.898411,19.4700466 866.213076,22.5232617 867.613441,20.2495909 C868.576192,21.0940972 873.302423,23.5626541 874.17765,21.0940972 C874.702787,22.9130338 884.067726,22.1984516 878.55379,20.1846288 C879.604064,20.0547048 882.492316,21.9386035 883.717635,22.9130338 C885.818182,22.7181478 883.89268,22.0035655 885.117999,21.4189073 C885.905705,23.1728819 886.518364,20.704325 889.84423,22.5232617 C889.669185,21.6137934 892.820005,21.6137934 893.257619,19.9897428 C895.970826,21.7437174 896.40844,20.704325 900.346965,21.6787554 C901.309716,20.3795149 908.486585,18.3007302 911.374837,20.8342491 C918.814275,18.1708061 928.441782,18.6905023 936.318833,20.509439 C939.907268,20.704325 944.195884,18.4956162 949.097161,20.1846288 C949.884866,20.1196668 949.797343,19.4700466 949.184684,19.4050846 C953.560823,19.4050846 962.138057,19.9897428 964.676218,17.2613378 C968.439698,19.7948567 982.61839,17.4562238 987.519667,19.5999706 C997.67231,18.7554643 1004.9367,15.8971353 1017.53998,18.0408821 C1019.29044,17.1314137 1018.32769,16.7416416 1017.80255,15.7022492 C1024.8919,18.3007302 1034.78197,17.5861479 1039.24564,14.4030087 C1038.89555,14.7278188 1038.54545,14.9876669 1038.45793,15.5723251 C1044.32196,14.8577429 1052.02396,14.0781986 1057.80047,12.1293379 C1060.07606,15.247515 1067.34045,13.7533885 1070.66632,15.7672112 C1073.81714,13.1037682 1086.85804,13.4285784 1093.85986,14.9227049 C1094.29747,12.9738442 1101.38682,15.052629 1104.27507,14.0132366 C1103.83746,14.7278188 1113.55249,15.7672112 1116.35322,14.8577429 C1116.52826,15.5073631 1115.82808,15.5723251 1115.04038,15.5723251 C1121.42954,17.3262998 1125.45559,17.3262998 1131.75723,17.910958 C1131.31961,17.5211859 1131.23209,17.0014897 1131.31961,16.2869074 C1131.84475,17.7160719 1137.18364,18.6905023 1136.6585,17.0664517 C1137.88382,17.1314137 1137.27116,18.1708061 1138.9341,18.0408821 C1140.07189,16.9365276 1142.52253,16.8066036 1143.48528,15.5723251 C1144.97317,15.8971353 1145.49831,16.0270593 1147.59885,16.6766796 C1149.17426,16.6766796 1146.89867,15.9620973 1147.7739,15.117591 C1153.37536,15.5073631 1159.677,17.97592 1161.07736,16.0270593 C1162.30268,16.1569834 1163.09039,16.5467555 1164.75332,15.5073631 C1164.6658,15.8971353 1164.6658,16.2869074 1164.57828,16.6766796 C1167.99166,13.7533885 1173.41808,15.4424011 1179.2821,15.7022492 C1179.98229,15.7022492 1179.89476,15.052629 1180.06981,14.5329328 C1187.77182,15.6372872 1189.95989,13.8183505 1195.73639,15.5723251 C1196.52409,15.7022492 1196.26153,14.7927809 1195.56134,14.4030087 C1195.29878,14.3380467 1194.94868,14.3380467 1194.68612,14.2730847 C1195.03621,14.2081226 1195.29878,14.2730847 1195.56134,14.4030087 C1200.98776,15.247515 1205.97656,14.0781986 1211.1404,14.2081226 C1211.40297,13.0388062 1209.91508,12.9088822 1210.26517,11.7395657 C1211.40297,11.0899455 1212.01563,11.9994138 1213.24095,12.324224 C1212.97838,11.9344518 1212.80333,11.6096417 1212.10315,11.4797176 C1212.45324,9.9855911 1216.82938,12.51911 1217.09195,10.2454392 C1221.64314,11.5446797 1226.98203,5.76305955 1232.49596,7.84184431 C1236.95962,6.41267978 1243.43631,7.58199621 1248.16254,8.88123669 C1250.96327,7.25718609 1255.51446,6.80245193 1256.91482,7.06230002 C1258.14014,4.78862919 1261.11592,10.8300974 1262.95389,8.16665443 C1263.65408,10.8950594 1268.03022,8.6213886 1268.81792,10.1804772 C1269.5181,10.1804772 1269.43058,9.46589491 1269.60563,9.01116074 C1275.6447,11.0899455 1281.15864,4.78862919 1286.76009,7.12726205 C1289.82339,4.85359121 1292.5366,11.5446797 1296.73769,11.2848316 C1296.91274,10.4403253 1296.3876,9.9855911 1295.07476,9.9855911 C1296.73769,8.88123669 1302.95181,10.8300974 1296.91274,10.1155151 C1297.35035,10.6352113 1297.5254,11.2198696 1297.26283,12.1293379 C1298.40063,12.1293379 1297.78797,10.8300974 1298.66319,10.6352113 C1300.32613,12.9738442 1304.78979,7.64695824 1308.37822,7.45207217 C1308.46575,7.38711014 1308.55327,7.38711014 1308.64079,7.45207217 C1308.55327,7.45207217 1308.46575,7.45207217 1308.37822,7.45207217 C1307.67804,7.90680633 1307.24043,11.2848316 1305.92759,11.1549075 C1312.49179,11.4797176 1319.75619,12.6490341 1326.67049,10.9600215 C1327.37067,11.2848316 1328.07085,8.23161645 1328.15837,7.58199621 C1328.94608,6.86741395 1330.25892,9.66078098 1331.65929,10.9600215 C1331.48424,10.5702493 1332.70956,10.3104012 1331.57176,10.0505531 C1335.1602,11.0249835 1336.56056,8.3615405 1341.98698,9.53085693 C1342.94973,9.40093288 1342.0745,9.14108479 1341.46184,9.07612276 C1349.68898,5.3732874 1364.13024,14.6628568 1375.33316,10.5702493 C1379.79682,11.8694898 1384.78562,10.6352113 1389.16176,11.8694898 C1387.14874,9.66078098 1395.98854,13.5585024 1398.96431,10.9600215 C1398.35165,12.1942999 1400.10211,11.6096417 1400.18963,11.0249835 C1401.06486,11.2198696 1400.18963,11.7395657 1399.48945,11.7395657 C1399.92706,12.1293379 1400.53972,12.389186 1401.23991,12.6490341 C1401.50247,12.1942999 1402.20266,11.2848316 1405.00339,11.7395657 C1404.39073,11.2198696 1404.47825,10.3104012 1404.74082,9.33597086 C1405.70357,8.16665443 1405.17843,10.7651354 1405.09091,11.3497936 C1412.88044,13.4935404 1416.29383,9.27100883 1421.10758,10.0505531 C1421.63272,9.01116074 1419.96978,9.20604681 1419.44465,8.75131264 C1419.96978,7.90680633 1422.42042,7.64695824 1423.20813,8.23161645 C1422.94556,8.81627467 1422.15785,7.84184431 1421.98281,8.55642657 C1422.07033,9.01116074 1423.1206,8.88123669 1423.1206,9.40093288 C1426.27142,8.42650252 1427.40922,8.49146455 1431.08518,9.14108479 C1432.13545,8.68635062 1432.83563,7.90680633 1433.18573,6.93237598 C1435.89893,7.06230002 1432.48554,7.90680633 1432.92316,8.88123669 C1435.81141,6.60756586 1437.99948,8.6213886 1440.10003,5.3732874 C1440.80021,5.95794562 1441.1503,6.67252788 1441.938,5.50321145 C1442.81323,5.76305955 1441.67544,5.95794562 1441.76296,6.67252788 C1443.77598,6.93237598 1442.63819,4.78862919 1445.52644,5.76305955 C1445.52644,5.04847728 1443.51341,5.3732874 1443.25085,4.78862919 C1442.11305,3.48938871 1446.66424,6.34771776 1447.45194,5.04847728 C1448.23965,5.24336335 1447.80203,6.08786966 1447.88955,6.67252788 C1448.50221,6.47764181 1448.93983,5.6331355 1449.11487,6.34771776 C1449.9901,6.21779371 1448.93983,5.82802157 1449.28992,5.17840133 C1450.42772,5.43824943 1449.55249,6.7374899 1451.56551,6.54260383 C1453.0534,6.54260383 1451.04038,5.43824943 1450.51524,5.30832538 C1451.56551,5.24336335 1454.62881,7.25718609 1454.9789,8.81627467 C1455.76661,8.03673038 1457.95468,8.23161645 1458.21724,7.06230002 C1459.09247,7.71192026 1457.42954,9.01116074 1460.40531,9.20604681 C1460.84293,8.1016924 1461.01797,9.40093288 1461.80568,8.1016924 C1462.33082,9.33597086 1464.16879,8.16665443 1462.85595,9.33597086 C1464.08127,9.53085693 1464.78145,9.40093288 1464.78145,8.68635062 C1465.83173,9.20604681 1466.70695,9.85566705 1467.58218,10.4403253 C1470.03282,10.1155151 1470.82053,9.07612276 1473.70878,10.0505531 C1474.40896,8.3615405 1472.48346,10.3104012 1472.57098,9.20604681 C1475.10914,7.38711014 1479.04767,8.94619871 1480.18546,6.54260383 C1486.92472,8.55642657 1497.77755,7.71192026 1500.22818,11.4797176 C1501.01589,11.4147556 1500.84084,10.5052873 1501.01589,9.92062907 C1502.41625,10.8300974 1503.7291,11.8694898 1506.17973,12.2592619 C1502.94139,10.7001734 1510.6434,11.9994138 1510.99349,12.9738442 C1511.86872,12.9088822 1511.60615,11.9994138 1511.78119,11.4147556 C1513.18156,11.7395657 1514.75697,13.2986543 1518.3454,12.2592619 C1519.04558,12.389186 1518.78302,13.0388062 1518.78302,13.4935404 C1519.92081,12.389186 1526.66007,14.9876669 1529.19823,13.0388062 C1530.68612,13.8183505 1530.77364,14.1431606 1532.52409,15.247515 C1533.13675,14.9876669 1533.57437,14.5978948 1533.83694,14.1431606 C1529.28575,13.8833125 1535.06226,12.2592619 1532.43657,10.8950594 C1533.57437,10.3753632 1535.41235,12.7139961 1535.67492,13.8833125 C1536.90023,12.9738442 1538.3006,12.1942999 1539.0883,10.9600215 C1543.2894,10.8950594 1548.45324,12.51911 1550.72884,14.9227049 C1553.44204,15.247515 1555.01745,13.8183505 1557.99323,15.052629 C1558.95598,13.4285784 1559.0435,11.9994138 1557.9057,10.7001734 C1557.55561,9.66078098 1559.74368,12.9738442 1560.61891,13.6884265 C1561.49414,12.6490341 1563.94478,13.1037682 1564.38239,12.7789581 C1565.08257,12.9088822 1564.82001,13.5585024 1564.82001,14.0132366 C1566.22037,14.2081226 1567.0956,14.0781986 1567.35817,13.3636163 C1568.14587,13.5585024 1567.70826,14.4030087 1567.79578,14.9876669 C1568.67101,14.8577429 1569.37119,14.4679707 1569.72128,13.9482746 C1570.50899,14.7927809 1573.57228,16.0270593 1572.78458,13.7533885 C1574.97265,13.6234644 1573.30972,15.7022492 1574.97265,15.8971353 C1576.98567,15.3774391 1573.04715,14.2730847 1575.23522,13.5585024 C1575.84788,13.8833125 1575.14769,14.7278188 1576.19797,15.6372872 C1576.98567,15.5723251 1577.24824,14.9876669 1578.12347,14.9876669 C1578.47356,14.0781986 1575.32274,15.052629 1576.46054,13.6884265 C1577.59833,14.6628568 1578.47356,13.4935404 1579.43631,14.2730847 C1577.94842,12.7139961 1579.26127,13.1687303 1579.7864,11.5446797 C1579.96145,13.8183505 1586.78823,13.3636163 1585.12529,12.324224 C1586.08804,11.6746037 1586.96327,14.1431606 1588.01355,13.6884265 C1588.9763,13.5585024 1587.8385,13.1687303 1588.18859,12.51911 C1589.50143,12.389186 1590.63923,15.117591 1591.16437,13.1037682 C1591.86455,13.2336923 1591.60198,13.8833125 1591.60198,14.3380467 C1592.30216,14.3380467 1592.21464,13.6884265 1592.38968,13.1687303 C1593.17739,13.8183505 1594.05262,14.4679707 1595.19041,14.9227049 C1596.06564,14.8577429 1595.80307,13.9482746 1595.97812,13.3636163 C1596.6783,13.4935404 1596.41573,14.1431606 1596.41573,14.5978948 C1598.16619,14.4030087 1597.20344,14.0781986 1597.20344,13.0388062 C1599.30399,13.2336923 1598.42876,15.052629 1601.22949,14.9227049 C1599.65408,12.7789581 1601.22949,14.7278188 1603.76765,13.8833125 C1602.10471,15.3124771 1604.7304,13.4935404 1604.20526,15.117591 C1605.60563,14.0132366 1607.61865,15.3124771 1610.85699,15.182553 C1618.90909,18.2357681 1627.48632,19.6649327 1631.77494,22.9130338 C1640.17713,23.5626541 1644.55327,23.8874642 1652.78041,25.1217427 C1652.60537,24.2122743 1649.80464,24.7319705 1648.57932,24.4721224 C1658.64444,24.7319705 1667.74681,26.4209831 1680,25.9012869 L1680,0 L0,0 Z" id="Path" fill="#E15B2A" fill-rule="nonzero"></path>
    </g>
</svg>